<svg version="1.1" xmlns="http://www.w3.org/2000/svg" viewBox="0 0 2200.1666666666633 1991.8066867434518" width="2200.1666666666633" height="1991.8066867434518">
  <!-- svg-source:excalidraw -->
  
  <defs>
    <style class="style-fonts">
      @font-face {
        font-family: "Virgil";
        src: url("https://excalidraw.com/Virgil.woff2");
      }
      @font-face {
        font-family: "Cascadia";
        src: url("https://excalidraw.com/Cascadia.woff2");
      }
    </style>
    
  </defs>
  <rect x="0" y="0" width="2200.1666666666633" height="1991.8066867434518" fill="#ffffff"></rect><g stroke-linecap="round" transform="translate(10 1378.28070563921) rotate(0 573.75 291.25)"><path d="M32.68 0.78 L1113.79 0.39 L1122.82 1.82 L1133.32 5.74 L1142.44 12.41 L1144.07 18.96 L1147.6 31.7 L1146.05 551.48 L1148.79 556.94 L1143.19 568.85 L1136.87 578.95 L1131.32 578.7 L1116.63 582.66 L32.16 581.26 L26.25 582.1 L12.87 576.33 L5.84 569.38 L3.99 563.34 L-1.11 552.21 L0.98 32.29 L2.81 19.9 L7.7 6.78 L16.92 1.84 L32.91 0.5" stroke="none" stroke-width="0" fill="#e7f5ff"></path><path d="M32 0 M32 0 C380.34 -3.08, 728.08 -3.9, 1115.5 0 M1115.5 0 C1137.73 -0.42, 1149.03 9.94, 1147.5 32 M1147.5 32 C1146.25 198.97, 1146.21 365.52, 1147.5 550.5 M1147.5 550.5 C1149.16 572.82, 1135.05 582.77, 1115.5 582.5 M1115.5 582.5 C860.84 579.72, 606.27 579.41, 32 582.5 M32 582.5 C9.6 581, 0.94 573.45, 0 550.5 M0 550.5 C-0.22 434.29, 0.87 318.71, 0 32 M0 32 C-1.23 10.75, 9.56 -1.76, 32 0" stroke="#e03131" stroke-width="4.5" fill="none" stroke-dasharray="8 12"></path></g><g stroke-linecap="round" transform="translate(163.80882787126848 1430.6532329495126) rotate(0 234.175376439327 75.1674047829938)"><path d="M33.03 1.26 L436.12 -0.68 L448.63 3.85 L459.21 9.4 L462.51 14.3 L466.82 26.3 L468.9 119.14 L467.27 130.88 L465.55 138.58 L457.73 144.67 L451.53 147.97 L437.69 151.35 L33.42 151.98 L17.15 148.94 L10.69 144.96 L6 138.09 L-0.9 124.39 L-0.57 24.28 L1.11 16.58 L8.3 6.16 L17.51 2 L30.85 -0.47" stroke="none" stroke-width="0" fill="#e7f5ff"></path><path d="M32 0 M32 0 C171.89 2.05, 313.29 1.03, 436.35 0 M436.35 0 C459.19 -1.78, 467.39 11.57, 468.35 32 M468.35 32 C470.04 51.9, 467.76 67.14, 468.35 118.33 M468.35 118.33 C468.35 140.28, 459.43 148.88, 436.35 150.33 M436.35 150.33 C346.59 151.25, 254.42 150.1, 32 150.33 M32 150.33 C12.27 151.78, -0.93 138.04, 0 118.33 M0 118.33 C0.2 87.36, -0.81 54.24, 0 32 M0 32 C0.6 12.54, 10.32 0.17, 32 0" stroke="#1e1e1e" stroke-width="1.5" fill="none" stroke-dasharray="8 9"></path></g><g transform="translate(198.4425325576658 1468.127319239196) rotate(0 199.5416717529297 37.69331849331036)"><text x="199.5416717529297" y="0" font-family="Virgil, Segoe UI Emoji" font-size="60.30930958929656px" fill="#1e1e1e" text-anchor="middle" style="white-space: pre;" direction="ltr" dominant-baseline="text-before-edge">Elasticsearch</text></g><g transform="translate(750.5258760635252 1721.161647475642) rotate(0 165.1666717529297 36.138175376439335)"><text x="165.1666717529297" y="0" font-family="Virgil, Segoe UI Emoji" font-size="57.82108060230291px" fill="#1e1e1e" text-anchor="middle" style="white-space: pre;" direction="ltr" dominant-baseline="text-before-edge">PostgreSQL</text></g><g stroke-linecap="round"><g transform="translate(725.1250369058125 1604.0739592559785) rotate(0 -0.5909390790334328 150.4240431786293)"><path d="M-0.84 -0.66 C-1.01 49.41, -0.31 251.36, -0.32 301.51" stroke="#1e1e1e" stroke-width="1.5" fill="none" stroke-dasharray="8 9"></path></g></g><mask></mask><g stroke-linecap="round"><g transform="translate(1086.506790670206 1901.8525243578385) rotate(0 0.10336321033537388 -144.95270242198217)"><path d="M-0.78 1 C-0.42 -47.64, 0.96 -242.15, 0.99 -290.91" stroke="#1e1e1e" stroke-width="1.5" fill="none" stroke-dasharray="8 9"></path></g></g><mask></mask><g stroke-linecap="round" transform="translate(728.0160909359283 1575.1634189548272) rotate(0 183.5819309123117 37.5837023914969)"><path d="M189.56 0.09 C208.5 -0.29, 228.65 0.55, 247.18 2.02 C265.71 3.49, 285.42 6.14, 300.74 8.9 C316.07 11.67, 328.64 15.22, 339.13 18.61 C349.63 22.01, 359.13 25.54, 363.73 29.27 C368.32 33, 368.97 37.09, 366.71 41 C364.46 44.9, 358.97 48.89, 350.21 52.7 C341.44 56.51, 328.02 60.76, 314.12 63.88 C300.22 67, 284.42 69.5, 266.83 71.42 C249.24 73.33, 228.42 74.99, 208.58 75.36 C188.75 75.74, 167.2 74.58, 147.81 73.67 C128.43 72.76, 109.38 71.87, 92.28 69.9 C75.17 67.93, 58.17 64.98, 45.19 61.87 C32.21 58.76, 21.82 54.86, 14.42 51.24 C7.01 47.62, 1.93 44.23, 0.76 40.12 C-0.4 36.01, 2.11 30.41, 7.44 26.58 C12.78 22.74, 21.66 20.51, 32.77 17.13 C43.88 13.74, 58.07 8.96, 74.1 6.29 C90.13 3.62, 106.77 1.99, 128.94 1.09 C151.11 0.19, 191.52 0.76, 207.12 0.89 C222.71 1.02, 222.85 1.25, 222.52 1.85" stroke="none" stroke-width="0" fill="#e7f5ff"></path><path d="M218.57 0.14 C237.73 0.28, 258.78 3.41, 275.9 5.69 C293.01 7.98, 308.38 10.75, 321.24 13.85 C334.1 16.96, 345.33 20.74, 353.05 24.33 C360.77 27.92, 366.43 31.48, 367.56 35.41 C368.69 39.35, 365.51 44.13, 359.84 47.95 C354.18 51.77, 344.94 54.91, 333.58 58.33 C322.22 61.75, 307.68 66.06, 291.68 68.47 C275.69 70.89, 256.3 71.85, 237.61 72.81 C218.93 73.77, 199.25 74.2, 179.57 74.22 C159.88 74.25, 138.24 74.25, 119.49 72.96 C100.73 71.67, 82.52 69.26, 67.02 66.48 C51.52 63.71, 36.84 59.76, 26.49 56.31 C16.13 52.87, 9.12 49.71, 4.89 45.79 C0.67 41.86, -1.11 36.84, 1.15 32.77 C3.41 28.71, 10 25.08, 18.46 21.42 C26.91 17.76, 38.09 13.59, 51.9 10.81 C65.7 8.02, 83.74 6.46, 101.31 4.7 C118.89 2.94, 136.13 1, 157.35 0.24 C178.57 -0.52, 215.46 -0.26, 228.64 0.16 C241.82 0.57, 237.32 1.92, 236.44 2.73" stroke="#1e1e1e" stroke-width="1.5" fill="none" stroke-dasharray="8 9"></path></g><g stroke-linecap="round" transform="translate(720.7884558606402 1858.4867139061112) rotate(0 183.5819309123117 37.5837023914969)"><path d="M145.47 1.25 C163.42 -0.04, 186.03 -0.02, 205.7 0.29 C225.37 0.59, 245.8 1.29, 263.47 3.07 C281.14 4.85, 297.74 7.92, 311.73 10.98 C325.72 14.05, 338.42 17.81, 347.43 21.48 C356.43 25.15, 363.13 29.09, 365.76 33 C368.4 36.92, 367.27 41.03, 363.24 44.99 C359.21 48.96, 351.73 53.35, 341.56 56.81 C331.4 60.27, 317.17 63.22, 302.24 65.76 C287.3 68.31, 270.19 70.56, 251.97 72.07 C233.75 73.59, 212.96 74.69, 192.9 74.84 C172.84 74.98, 150.92 73.93, 131.62 72.94 C112.33 71.95, 93.44 71.11, 77.15 68.93 C60.86 66.74, 45.47 63.16, 33.87 59.84 C22.28 56.52, 13.13 52.84, 7.58 48.99 C2.04 45.13, -0.15 40.86, 0.61 36.7 C1.38 32.54, 5.28 27.9, 12.17 24.03 C19.06 20.15, 29.16 16.69, 41.93 13.44 C54.71 10.2, 69.88 6.73, 88.81 4.56 C107.75 2.39, 142.63 1.2, 155.54 0.43 C168.45 -0.34, 165.94 -0.61, 166.28 -0.04" stroke="none" stroke-width="0" fill="#e7f5ff"></path><path d="M172.45 -0.05 C191.26 -0.85, 213.64 0.33, 232.62 1.52 C251.6 2.71, 269.98 4.94, 286.34 7.1 C302.71 9.27, 318.73 11.27, 330.81 14.49 C342.89 17.71, 352.76 22.44, 358.81 26.41 C364.85 30.38, 367.63 34.2, 367.08 38.33 C366.52 42.47, 362.17 47.38, 355.48 51.21 C348.8 55.04, 339.5 58.34, 326.95 61.31 C314.4 64.27, 297.15 66.78, 280.19 68.98 C263.23 71.17, 244.3 73.53, 225.18 74.47 C206.06 75.42, 185.43 75.28, 165.47 74.67 C145.51 74.06, 123.62 72.39, 105.41 70.79 C87.2 69.2, 70.26 67.81, 56.22 65.08 C42.19 62.35, 30.25 58.11, 21.22 54.41 C12.19 50.7, 4.89 46.7, 2.02 42.83 C-0.85 38.96, 0.19 35.07, 4 31.18 C7.82 27.3, 15.12 23.28, 24.9 19.53 C34.68 15.79, 48.07 11.5, 62.69 8.73 C77.32 5.96, 93.25 4.54, 112.67 2.92 C132.08 1.3, 166.87 -0.67, 179.19 -0.98 C191.5 -1.3, 186.53 0.32, 186.57 1" stroke="#1e1e1e" stroke-width="1.5" fill="none" stroke-dasharray="8 9"></path></g><g mask="url(#mask-vu0vEOzXT14sHqlH3BT5k)" stroke-linecap="round"><g transform="translate(712.352983162029 1811.010040144138) rotate(0 -160.69145420158293 -102.43783344675592)"><path d="M-0.43 1.01 C-45.12 -19.79, -215.59 -90.89, -269.01 -125.38 C-322.43 -159.86, -312.39 -192.64, -320.95 -205.89" stroke="#1e1e1e" stroke-width="1.5" fill="none" stroke-dasharray="8 9"></path></g><g transform="translate(712.352983162029 1811.010040144138) rotate(0 -160.69145420158293 -102.43783344675592)"><path d="M1.66 -6.11 C3.5 -5.93, 5.66 -5.68, 6.69 -4.54 C7.73 -3.39, 8.15 -1.06, 7.87 0.78 C7.6 2.63, 6.14 5.04, 5.04 6.51 C3.93 7.99, 2.76 9.32, 1.26 9.66 C-0.24 9.99, -2.55 9.44, -3.96 8.54 C-5.37 7.64, -6.42 5.97, -7.17 4.27 C-7.93 2.56, -9.07 -0.06, -8.48 -1.67 C-7.9 -3.28, -5.4 -4.7, -3.67 -5.39 C-1.94 -6.07, 0.8 -5.76, 1.9 -5.79 C3 -5.82, 2.99 -5.72, 2.94 -5.57" stroke="none" stroke-width="0" fill="#1e1e1e"></path></g><g transform="translate(712.352983162029 1811.010040144138) rotate(0 -160.69145420158293 -102.43783344675592)"><path d="M-301.49 -180.32 C-307.33 -188.92, -312.88 -193.43, -321.06 -205.45" stroke="#1e1e1e" stroke-width="1.5" fill="none"></path></g><g transform="translate(712.352983162029 1811.010040144138) rotate(0 -160.69145420158293 -102.43783344675592)"><path d="M-321.18 -174.55 C-322.55 -184.38, -323.65 -190.2, -321.06 -205.45" stroke="#1e1e1e" stroke-width="1.5" fill="none"></path></g></g><mask id="mask-vu0vEOzXT14sHqlH3BT5k"><rect x="0" y="0" fill="#fff" width="1132.2992513793324" height="2115.827295255415"></rect><rect x="342.4499969482422" y="1663.28070563921" fill="#000" width="200.10000610351562" height="45" opacity="1"></rect></mask><g transform="translate(342.4499969482422 1663.28070563921) rotate(0 209.21153201220386 45.291501058172)"><text x="100.05000305175781" y="0" font-family="Virgil, Segoe UI Emoji" font-size="36px" fill="#1e1e1e" text-anchor="middle" style="white-space: pre;" direction="ltr" dominant-baseline="text-before-edge">sync / ETL</text></g><g stroke-linecap="round" transform="translate(13.166666666662422 449.16784765279) rotate(0 417.31753764393306 423.2801151461469)"><path d="M32 0 L802.64 0 L810.14 0.5 L816.64 2 L822.14 4.5 L826.64 8 L830.14 12.5 L832.64 18 L834.14 24.5 L834.64 32 L834.64 814.56 L834.14 822.06 L832.64 828.56 L830.14 834.06 L826.64 838.56 L822.14 842.06 L816.64 844.56 L810.14 846.06 L802.64 846.56 L32 846.56 L24.5 846.06 L18 844.56 L12.5 842.06 L8 838.56 L4.5 834.06 L2 828.56 L0.5 822.06 L0 814.56 L0 32 L0.5 24.5 L2 18 L4.5 12.5 L8 8 L12.5 4.5 L18 2 L24.5 0.5 L32 0" stroke="none" stroke-width="0" fill="#f8f9fa"></path><path d="M32 0 M32 0 C233.17 0, 434.34 0, 802.64 0 M802.64 0 C823.97 0, 834.64 10.67, 834.64 32 M834.64 32 C834.64 268.51, 834.64 505.02, 834.64 814.56 M834.64 814.56 C834.64 835.89, 823.97 846.56, 802.64 846.56 M802.64 846.56 C589.36 846.56, 376.09 846.56, 32 846.56 M32 846.56 C10.67 846.56, 0 835.89, 0 814.56 M0 814.56 C0 530.73, 0 246.89, 0 32 M0 32 C0 10.67, 10.67 0, 32 0" stroke="#343a40" stroke-width="1.5" fill="none" stroke-dasharray="8 9"></path></g><g stroke-linecap="round" transform="translate(1240.7826985532884 451.00442869796274) rotate(0 474.6919840566875 495.8157661647475)"><path d="M32 0 L917.38 0 L924.88 0.5 L931.38 2 L936.88 4.5 L941.38 8 L944.88 12.5 L947.38 18 L948.88 24.5 L949.38 32 L949.38 959.63 L948.88 967.13 L947.38 973.63 L944.88 979.13 L941.38 983.63 L936.88 987.13 L931.38 989.63 L924.88 991.13 L917.38 991.63 L32 991.63 L24.5 991.13 L18 989.63 L12.5 987.13 L8 983.63 L4.5 979.13 L2 973.63 L0.5 967.13 L0 959.63 L0 32 L0.5 24.5 L2 18 L4.5 12.5 L8 8 L12.5 4.5 L18 2 L24.5 0.5 L32 0" stroke="none" stroke-width="0" fill="#f8f9fa"></path><path d="M32 0 M32 0 C376.03 0, 720.06 0, 917.38 0 M917.38 0 C938.72 0, 949.38 10.67, 949.38 32 M949.38 32 C949.38 387.15, 949.38 742.31, 949.38 959.63 M949.38 959.63 C949.38 980.96, 938.72 991.63, 917.38 991.63 M917.38 991.63 C580.66 991.63, 243.93 991.63, 32 991.63 M32 991.63 C10.67 991.63, 0 980.96, 0 959.63 M0 959.63 C0 653.57, 0 347.5, 0 32 M0 32 C0 10.67, 10.67 0, 32 0" stroke="#1e1e1e" stroke-width="1.5" fill="none" stroke-dasharray="8 9"></path></g><g stroke-linecap="round" transform="translate(1483.1358872158216 605.6758193091231) rotate(0 229.8387953941542 72.27635075287864)"><path d="M32 0 M32 0 C147.94 0.17, 263.28 1.44, 427.68 0 M32 0 C180.62 1.53, 328.72 1.59, 427.68 0 M427.68 0 C450.76 0.37, 460.43 9.32, 459.68 32 M427.68 0 C450.94 -2.01, 458.18 11.45, 459.68 32 M459.68 32 C459.71 62.45, 459.8 91.45, 459.68 112.55 M459.68 32 C460.08 63.72, 460.73 94.79, 459.68 112.55 M459.68 112.55 C459.43 133.48, 447.65 145.9, 427.68 144.55 M459.68 112.55 C458.74 133.64, 449.29 142.51, 427.68 144.55 M427.68 144.55 C338.2 141.5, 249.96 142.29, 32 144.55 M427.68 144.55 C339.97 146.3, 253.11 145.69, 32 144.55 M32 144.55 C9.04 144.02, 1.95 132.77, 0 112.55 M32 144.55 C12.08 142.47, 2.22 133.12, 0 112.55 M0 112.55 C1.56 89.34, 0.58 63.09, 0 32 M0 112.55 C0.38 95.13, 0.1 77.85, 0 32 M0 32 C-1.72 12.53, 9.71 -1.85, 32 0 M0 32 C2.21 11.06, 10.3 -0.23, 32 0" stroke="#1e1e1e" stroke-width="2" fill="none"></path></g><g transform="translate(1527.0996826099754 640.2275399623114) rotate(0 185.875 37.72463009969031)"><text x="185.875" y="0" font-family="Virgil, Segoe UI Emoji" font-size="60.35940815950451px" fill="#1e1e1e" text-anchor="middle" style="white-space: pre;" direction="ltr" dominant-baseline="text-before-edge">Auth Service</text></g><g stroke-linecap="round" transform="translate(1483.1358872158216 507.37998228520814) rotate(0 229.8387953941542 43.365810451727185)"><path d="M21.68 0 M21.68 0 C129.21 -2, 235.68 -1.74, 437.99 0 M21.68 0 C125.84 1.42, 229.56 0.61, 437.99 0 M437.99 0 C451.31 0.11, 458.97 6.26, 459.68 21.68 M437.99 0 C452.27 -1.17, 461.55 6.37, 459.68 21.68 M459.68 21.68 C458.05 34.25, 458.56 42.95, 459.68 65.05 M459.68 21.68 C459.6 32.62, 460.33 43.87, 459.68 65.05 M459.68 65.05 C458.28 77.68, 453.35 86.91, 437.99 86.73 M459.68 65.05 C458.28 81.52, 450.99 84.79, 437.99 86.73 M437.99 86.73 C289.71 86.58, 141.86 85.48, 21.68 86.73 M437.99 86.73 C278.84 88.76, 120.81 88.32, 21.68 86.73 M21.68 86.73 C6.49 87.72, 1.06 79.91, 0 65.05 M21.68 86.73 C9.27 88.14, 1.66 81.57, 0 65.05 M0 65.05 C-1 52.06, 1.01 35.84, 0 21.68 M0 65.05 C0.05 54.89, -0.42 46.26, 0 21.68 M0 21.68 C-1.46 6.28, 7.57 -0.94, 21.68 0 M0 21.68 C0.38 5.54, 5.24 -0.52, 21.68 0" stroke="#1e1e1e" stroke-width="1" fill="none"></path></g><g transform="translate(1668.024681847036 520.5660886571831) rotate(0 44.95000076293945 30.179704079752256)"><text x="44.95000076293945" y="0" font-family="Virgil, Segoe UI Emoji" font-size="48.28752652760361px" fill="#1e1e1e" text-anchor="middle" style="white-space: pre;" direction="ltr" dominant-baseline="text-before-edge">API</text></g><g transform="translate(1364.147665257502 1178.1045172719218) rotate(0 165.1666717529297 36.138175376439335)"><text x="165.1666717529297" y="0" font-family="Virgil, Segoe UI Emoji" font-size="57.82108060230291px" fill="#1e1e1e" text-anchor="middle" style="white-space: pre;" direction="ltr" dominant-baseline="text-before-edge">PostgreSQL</text></g><g stroke-linecap="round"><g transform="translate(1338.7468260997894 1061.0168290522586) rotate(0 0.5636886925899489 150.41326219433563)"><path d="M-0.43 0.36 C-0.36 50.46, 0.56 250.22, 0.49 300.09 M1.55 -0.49 C1.5 49.8, -0.21 251.19, -0.2 301.32" stroke="#1e1e1e" stroke-width="1" fill="none"></path></g></g><mask></mask><g stroke-linecap="round"><g transform="translate(1700.128579864183 1358.7953941541186) rotate(0 0.3163009591808077 -145.70001550515968)"><path d="M0.49 -0.58 C0.42 -49.5, -0.65 -244.67, -0.83 -293.12 M-0.71 1.72 C-0.36 -47.12, 1.6 -243.02, 1.45 -292.18" stroke="#1e1e1e" stroke-width="1" fill="none"></path></g></g><mask></mask><g stroke-linecap="round" transform="translate(1341.6378801299043 1032.106288751107) rotate(0 183.5819309123117 37.5837023914969)"><path d="M139.83 1.72 C157.3 0.39, 180.08 -0.06, 200.07 0.16 C220.05 0.39, 241.44 1.39, 259.75 3.08 C278.05 4.77, 295.61 7.42, 309.89 10.3 C324.18 13.19, 336.32 16.88, 345.46 20.42 C354.6 23.95, 361.71 27.42, 364.76 31.51 C367.8 35.59, 367.02 40.83, 363.72 44.94 C360.43 49.04, 354.65 52.56, 344.99 56.14 C335.32 59.72, 320.52 63.81, 305.73 66.41 C290.94 69, 274.31 70.37, 256.25 71.7 C238.2 73.04, 217.31 74.02, 197.41 74.42 C177.51 74.83, 156.06 74.99, 136.85 74.12 C117.63 73.26, 98.79 71.64, 82.14 69.23 C65.48 66.81, 48.93 62.79, 36.94 59.65 C24.95 56.51, 16.28 53.98, 10.19 50.4 C4.11 46.82, 0.25 42.43, 0.44 38.15 C0.62 33.88, 4.67 28.82, 11.32 24.75 C17.97 20.68, 28.09 16.88, 40.34 13.73 C52.59 10.58, 67.48 7.9, 84.82 5.85 C102.17 3.8, 133.88 2.07, 144.4 1.43 C154.91 0.8, 147.45 1.6, 147.92 2.06 M108.46 4.13 C124.54 2.11, 146.65 0.15, 166.43 -0.2 C186.21 -0.55, 207.53 0.93, 227.16 2.02 C246.78 3.11, 267.47 4.04, 284.17 6.34 C300.88 8.63, 315.05 12.81, 327.41 15.8 C339.78 18.79, 351.67 20.69, 358.36 24.28 C365.05 27.87, 367.54 33.11, 367.55 37.33 C367.55 41.56, 364.6 45.88, 358.39 49.62 C352.19 53.35, 342.7 56.56, 330.3 59.75 C317.91 62.95, 301.02 66.4, 284.03 68.78 C267.03 71.15, 247.35 72.73, 228.34 74.01 C209.32 75.29, 189.52 76.85, 169.95 76.43 C150.38 76.02, 129.35 73.34, 110.92 71.51 C92.48 69.68, 73.88 67.88, 59.35 65.46 C44.82 63.04, 33.16 60.49, 23.75 56.99 C14.33 53.5, 6.61 48.72, 2.87 44.5 C-0.87 40.29, -2 35.83, 1.3 31.7 C4.6 27.58, 13.11 23.4, 22.68 19.77 C32.24 16.15, 44.17 12.47, 58.69 9.96 C73.2 7.46, 100.96 5.53, 109.76 4.73 C118.57 3.93, 110.21 4.65, 111.51 5.17" stroke="#1e1e1e" stroke-width="1" fill="none"></path></g><g stroke-linecap="round" transform="translate(1334.410245054617 1315.4295837023915) rotate(0 183.5819309123117 37.5837023914969)"><path d="M104 3.65 C120 1.31, 143.41 0.45, 163.35 0 C183.28 -0.45, 204.39 0, 223.61 0.98 C242.82 1.96, 261.8 3.81, 278.64 5.86 C295.47 7.92, 311.97 10.1, 324.64 13.3 C337.31 16.5, 347.43 21.15, 354.65 25.05 C361.87 28.95, 367.35 32.64, 367.95 36.72 C368.55 40.81, 364.13 45.81, 358.24 49.57 C352.35 53.33, 344.1 56.24, 332.62 59.27 C321.14 62.3, 305.73 65.3, 289.36 67.74 C272.99 70.18, 253.51 72.62, 234.41 73.92 C215.31 75.21, 194.72 75.88, 174.74 75.52 C154.77 75.16, 132.94 73.17, 114.55 71.75 C96.17 70.33, 79.27 69.39, 64.41 67.01 C49.54 64.63, 35.39 61.18, 25.37 57.46 C15.35 53.74, 8.16 48.9, 4.27 44.67 C0.39 40.44, -0.46 36.1, 2.08 32.11 C4.62 28.11, 10.54 24.16, 19.49 20.69 C28.44 17.22, 39.39 14.21, 55.77 11.28 C72.14 8.34, 105.11 4.64, 117.74 3.08 C130.37 1.52, 130.6 1.55, 131.53 1.91 M129.02 1.29 C146.22 -0.4, 169.22 0.69, 189.42 0.94 C209.61 1.19, 231.62 1.26, 250.2 2.81 C268.77 4.35, 285.55 7.8, 300.88 10.2 C316.2 12.6, 331.72 13.99, 342.14 17.22 C352.56 20.45, 359.3 25.45, 363.41 29.58 C367.51 33.71, 368.96 38.08, 366.78 42.01 C364.6 45.93, 359.19 49.48, 350.31 53.11 C341.42 56.75, 327.86 60.8, 313.48 63.83 C299.11 66.85, 281.62 69.22, 264.05 71.29 C246.47 73.35, 227.51 75.8, 208.05 76.23 C188.59 76.66, 166.95 74.87, 147.27 73.85 C127.6 72.83, 107 71.83, 90.03 70.09 C73.05 68.35, 58.22 66.42, 45.42 63.41 C32.61 60.4, 20.9 56, 13.19 52.01 C5.48 48.03, -0.04 43.66, -0.85 39.49 C-1.67 35.32, 2.54 30.94, 8.29 27 C14.03 23.06, 22.21 18.9, 33.62 15.84 C45.02 12.78, 60.48 10.78, 76.73 8.62 C92.98 6.46, 121.86 3.72, 131.11 2.87 C140.37 2.03, 131.31 3.22, 132.24 3.53" stroke="#1e1e1e" stroke-width="1" fill="none"></path></g><g mask="url(#mask-JXsgeDiMKzyTLNVJItnP3)" stroke-linecap="round"><g transform="translate(1521.6059935045723 1020.5420726306464) rotate(0 0 -115.64216120460583)"><path d="M0 0 C0 -38.55, 0 -192.74, 0 -231.28 M0 0 C0 -38.55, 0 -192.74, 0 -231.28" stroke="#1e1e1e" stroke-width="1" fill="none"></path></g><g transform="translate(1521.6059935045723 1020.5420726306464) rotate(0 0 -115.64216120460583)"><path d="M-10.26 -28.19 C-7.82 -21.47, -5.37 -14.75, 0 0 M-10.26 -28.19 C-7.81 -21.46, -5.36 -14.73, 0 0" stroke="#1e1e1e" stroke-width="1" fill="none"></path></g><g transform="translate(1521.6059935045723 1020.5420726306464) rotate(0 0 -115.64216120460583)"><path d="M10.26 -28.19 C7.82 -21.47, 5.37 -14.75, 0 0 M10.26 -28.19 C7.81 -21.46, 5.36 -14.73, 0 0" stroke="#1e1e1e" stroke-width="1" fill="none"></path></g><g transform="translate(1521.6059935045723 1020.5420726306464) rotate(0 0 -115.64216120460583)"><path d="M10.26 -203.09 C7.82 -209.81, 5.37 -216.53, 0 -231.28 M10.26 -203.09 C7.81 -209.82, 5.36 -216.55, 0 -231.28" stroke="#1e1e1e" stroke-width="1" fill="none"></path></g><g transform="translate(1521.6059935045723 1020.5420726306464) rotate(0 0 -115.64216120460583)"><path d="M-10.26 -203.09 C-7.82 -209.81, -5.37 -216.53, 0 -231.28 M-10.26 -203.09 C-7.81 -209.82, -5.36 -216.55, 0 -231.28" stroke="#1e1e1e" stroke-width="1" fill="none"></path></g></g><mask id="mask-JXsgeDiMKzyTLNVJItnP3"><rect x="0" y="0" fill="#fff" width="1621.6059935045723" height="1351.8263950398582"></rect><rect x="1412.1059935045723" y="882.3999114260406" fill="#000" width="219" height="45" opacity="1"></rect></mask><g transform="translate(1412.1059935045723 882.3999114260406) rotate(0 109.5 22.5)"><text x="109.5" y="0" font-family="Virgil, Segoe UI Emoji" font-size="36px" fill="#1e1e1e" text-anchor="middle" style="white-space: pre;" direction="ltr" dominant-baseline="text-before-edge">read / write</text></g><g stroke-linecap="round" transform="translate(755.6059935045723 10) rotate(0 303.5606731620901 70.05246303740546)"><path d="M32 0 L582.62 0.5 L589.12 2 L594.62 4.5 L599.12 8 L602.62 12.5 L605.12 18 L606.62 24.5 L606.62 115.6 L605.12 122.1 L602.62 127.6 L599.12 132.1 L594.62 135.6 L589.12 138.1 L582.62 139.6 L575.12 140.1 L24.5 139.6 L18 138.1 L12.5 135.6 L8 132.1 L4.5 127.6 L2 122.1 L0.5 115.6 L0 32 L0.5 24.5 L2 18 L4.5 12.5 L8 8 L12.5 4.5 L18 2 L24.5 0.5 L32 0" stroke="none" stroke-width="0" fill="#f8f9fa"></path><path d="M32 0 M32 0 C212.21 0, 392.42 0, 575.12 0 M32 0 C177.15 0, 322.3 0, 575.12 0 M575.12 0 C596.45 0, 607.12 10.67, 607.12 32 M575.12 0 C596.45 0, 607.12 10.67, 607.12 32 M607.12 32 C607.12 50.5, 607.12 69, 607.12 108.1 M607.12 32 C607.12 60.12, 607.12 88.24, 607.12 108.1 M607.12 108.1 C607.12 129.44, 596.45 140.1, 575.12 140.1 M607.12 108.1 C607.12 129.44, 596.45 140.1, 575.12 140.1 M575.12 140.1 C382.89 140.1, 190.66 140.1, 32 140.1 M575.12 140.1 C459.79 140.1, 344.46 140.1, 32 140.1 M32 140.1 C10.67 140.1, 0 129.44, 0 108.1 M32 140.1 C10.67 140.1, 0 129.44, 0 108.1 M0 108.1 C0 81.83, 0 55.56, 0 32 M0 108.1 C0 81.86, 0 55.62, 0 32 M0 32 C0 10.67, 10.67 0, 32 0 M0 32 C0 10.67, 10.67 0, 32 0" stroke="#1e1e1e" stroke-width="1" fill="none"></path></g><g transform="translate(965.4833323160765 42.355408345222315) rotate(0 93.68333435058594 37.697054692183116)"><text x="93.68333435058594" y="0" font-family="Virgil, Segoe UI Emoji" font-size="60.315287507493px" fill="#1e1e1e" text-anchor="middle" style="white-space: pre;" direction="ltr" dominant-baseline="text-before-edge">clients</text></g><g mask="url(#mask-k_-aUsq7-ifuT7P7VuZzA)" stroke-linecap="round"><g transform="translate(847.9038947088402 181.5051642689251) rotate(0 -221.3037513196996 151.90037639948616)"><path d="M0.06 -1.05 C-73.65 49.6, -367.94 252.9, -441.49 303.76 M-1.37 1.02 C-75.34 51.81, -369.21 254.16, -442.67 304.85" stroke="#1e1e1e" stroke-width="1" fill="none"></path></g><g transform="translate(847.9038947088402 181.5051642689251) rotate(0 -221.3037513196996 151.90037639948616)"><path d="M-19.06 22.69 C-12.39 14.16, -5.49 7.26, 1.51 -2.57 M-18.17 23.14 C-13.04 15.25, -7.46 9.74, -0.78 -0.53" stroke="#1e1e1e" stroke-width="1" fill="none"></path></g><g transform="translate(847.9038947088402 181.5051642689251) rotate(0 -221.3037513196996 151.90037639948616)"><path d="M-30.72 5.8 C-19.82 3.42, -8.67 2.66, 1.51 -2.57 M-29.82 6.25 C-21.37 3.2, -12.4 2.6, -0.78 -0.53" stroke="#1e1e1e" stroke-width="1" fill="none"></path></g><g transform="translate(847.9038947088402 181.5051642689251) rotate(0 -221.3037513196996 151.90037639948616)"><path d="M-427.02 279.68 C-433.06 288.98, -438.82 299.88, -441.22 303.33 M-426.12 280.13 C-431.29 286.7, -435.83 295.42, -443.51 305.37" stroke="#1e1e1e" stroke-width="1" fill="none"></path></g><g transform="translate(847.9038947088402 181.5051642689251) rotate(0 -221.3037513196996 151.90037639948616)"><path d="M-415.38 296.58 C-425.64 299.73, -435.63 304.48, -441.22 303.33 M-414.48 297.03 C-422.97 298.76, -430.9 302.56, -443.51 305.37" stroke="#1e1e1e" stroke-width="1" fill="none"></path></g></g><mask id="mask-k_-aUsq7-ifuT7P7VuZzA"><rect x="0" y="0" fill="#fff" width="1388.964553603686" height="586.120310415958"></rect><rect x="485.9402309108318" y="311.31273734244155" fill="#000" width="282.8666687011719" height="45" opacity="1"></rect></mask><g transform="translate(485.9402309108318 311.31273734244155) rotate(0 140.6599124783088 22.092803325969726)"><text x="141.43333435058594" y="0" font-family="Virgil, Segoe UI Emoji" font-size="36px" fill="#1e1e1e" text-anchor="middle" style="white-space: pre;" direction="ltr" dominant-baseline="text-before-edge">HTTP Requests</text></g><g mask="url(#mask-hbOH_WBWEQ8Vicl0qk22q)" stroke-linecap="round"><g transform="translate(851.0772901189048 880.9349113731366) rotate(0 183.4825942660159 71.10577595378498)"><path d="M0 0 C28.82 23.67, 111.78 137.16, 172.94 142.04 C234.1 146.92, 334.63 48.07, 366.97 29.28" stroke="#1e1e1e" stroke-width="2.5" fill="none" stroke-dasharray="8 10"></path></g></g><mask id="mask-hbOH_WBWEQ8Vicl0qk22q"><rect x="0" y="0" fill="#fff" width="1318.0424786509366" height="1122.9718047247968"></rect><rect x="937.5262293373598" y="965.3044402261928" fill="#000" width="172.98333740234375" height="115.33472899720772" opacity="1"></rect></mask><g transform="translate(937.5262293373598 965.3044402261928) rotate(0 97.03365504756084 -13.26375289927131)"><text x="86.49166870117188" y="0" font-family="Virgil, Segoe UI Emoji" font-size="46.13389159888309px" fill="#1e1e1e" text-anchor="middle" style="white-space: pre;" direction="ltr" dominant-baseline="text-before-edge">shared </text><text x="86.49166870117188" y="57.66736449860386" font-family="Virgil, Segoe UI Emoji" font-size="46.13389159888309px" fill="#1e1e1e" text-anchor="middle" style="white-space: pre;" direction="ltr" dominant-baseline="text-before-edge">secrets</text></g><g mask="url(#mask-Jz0imj8R8O2BsGfT4hmtO)" stroke-linecap="round"><g transform="translate(1277.9503775560115 175.3303280831983) rotate(0 156.75882812647342 156.09606990667214)"><path d="M0.49 -0.87 C52.53 51.26, 259.7 260.77, 311.87 313.06 M-0.7 1.29 C51.76 53.03, 261.89 259.03, 314.22 311.2" stroke="#1e1e1e" stroke-width="1" fill="none"></path></g><g transform="translate(1277.9503775560115 175.3303280831983) rotate(0 156.75882812647342 156.09606990667214)"><path d="M26.18 10.78 C21.13 10.21, 13.5 3.77, 0.62 1.01 M28.09 11.68 C17.68 7.25, 7.99 3.61, -0.18 -0.79" stroke="#1e1e1e" stroke-width="1" fill="none"></path></g><g transform="translate(1277.9503775560115 175.3303280831983) rotate(0 156.75882812647342 156.09606990667214)"><path d="M11.61 25.23 C10.45 20.71, 6.75 10.37, 0.62 1.01 M13.52 26.12 C8.35 16.38, 3.98 7.46, -0.18 -0.79" stroke="#1e1e1e" stroke-width="1" fill="none"></path></g><g transform="translate(1277.9503775560115 175.3303280831983) rotate(0 156.75882812647342 156.09606990667214)"><path d="M285.5 297.55 C295.17 303.58, 302.21 303.96, 314.35 313.09 M287.41 298.45 C297 303.08, 307.16 308.67, 313.55 311.29" stroke="#1e1e1e" stroke-width="1" fill="none"></path></g><g transform="translate(1277.9503775560115 175.3303280831983) rotate(0 156.75882812647342 156.09606990667214)"><path d="M299.92 282.95 C305.74 292.98, 308.88 297.29, 314.35 313.09 M301.83 283.85 C306.24 293.85, 311.14 304.77, 313.55 311.29" stroke="#1e1e1e" stroke-width="1" fill="none"></path></g></g><mask id="mask-Jz0imj8R8O2BsGfT4hmtO"><rect x="0" y="0" fill="#fff" width="1690.509191177901" height="587.8891417050875"></rect><rect x="1327.2964500163707" y="286.6097348941429" fill="#000" width="213.86666870117188" height="90" opacity="1"></rect></mask><g transform="translate(1327.2964500163707 286.6097348941429) rotate(0 107.41275566611421 44.81666309572756)"><text x="106.93333435058594" y="0" font-family="Virgil, Segoe UI Emoji" font-size="36px" fill="#1e1e1e" text-anchor="middle" style="white-space: pre;" direction="ltr" dominant-baseline="text-before-edge">cred ⮀ jwt </text><text x="106.93333435058594" y="45" font-family="Virgil, Segoe UI Emoji" font-size="36px" fill="#1e1e1e" text-anchor="middle" style="white-space: pre;" direction="ltr" dominant-baseline="text-before-edge">tokens</text></g><g stroke-linecap="round" transform="translate(173.14540891644174 605.6758193091231) rotate(0 229.8387953941542 108.41452612931795)"><path d="M32 0 M32 0 C160.03 -1.68, 290.08 -2.15, 427.68 0 M32 0 C185.03 1.69, 337.06 1.64, 427.68 0 M427.68 0 C450.54 1.04, 460.16 12.28, 459.68 32 M427.68 0 C449.41 -0.28, 460.53 9.66, 459.68 32 M459.68 32 C460.18 64.36, 458.36 98.98, 459.68 184.83 M459.68 32 C459.76 68.95, 458.55 104.62, 459.68 184.83 M459.68 184.83 C459.85 205.55, 449.61 216.5, 427.68 216.83 M459.68 184.83 C460.42 205.15, 450.45 217.44, 427.68 216.83 M427.68 216.83 C328.05 216.28, 228.7 215.86, 32 216.83 M427.68 216.83 C334.76 215.38, 242.7 215.12, 32 216.83 M32 216.83 C10.6 218.24, 1.8 205.67, 0 184.83 M32 216.83 C9.73 218.33, 0.59 208.03, 0 184.83 M0 184.83 C1.27 151.08, -0.03 118.78, 0 32 M0 184.83 C-1.22 125.01, 0.07 66.68, 0 32 M0 32 C-1.62 10.44, 11.62 1.18, 32 0 M0 32 C-2.06 11.53, 8.61 0.11, 32 0" stroke="#1e1e1e" stroke-width="2" fill="none"></path></g><g transform="translate(190.87586690825174 676.3657153387508) rotate(0 212.10833740234375 37.724630099690316)"><text x="212.10833740234375" y="0" font-family="Virgil, Segoe UI Emoji" font-size="60.35940815950451px" fill="#1e1e1e" text-anchor="middle" style="white-space: pre;" direction="ltr" dominant-baseline="text-before-edge">Movies Service</text></g><g stroke-linecap="round" transform="translate(173.14540891644174 507.37998228520814) rotate(0 229.8387953941542 43.365810451727185)"><path d="M21.68 0 M21.68 0 C165.72 -0.38, 310.42 -1.18, 437.99 0 M21.68 0 C154.9 0.78, 287.29 0.58, 437.99 0 M437.99 0 C452.48 0.25, 458.77 9.15, 459.68 21.68 M437.99 0 C454.69 1.56, 458.33 7.05, 459.68 21.68 M459.68 21.68 C460.43 37.46, 457.78 51.11, 459.68 65.05 M459.68 21.68 C459.64 36.57, 460.08 49.72, 459.68 65.05 M459.68 65.05 C458.55 79.71, 453.66 86.6, 437.99 86.73 M459.68 65.05 C461.4 78.92, 453.16 85.87, 437.99 86.73 M437.99 86.73 C292.23 85.26, 143.99 84.73, 21.68 86.73 M437.99 86.73 C347.99 85.17, 256.78 86.07, 21.68 86.73 M21.68 86.73 C8.61 86.84, -0.82 79.14, 0 65.05 M21.68 86.73 C5.78 85.44, -0.32 79.14, 0 65.05 M0 65.05 C2.04 46.56, 1.15 29.72, 0 21.68 M0 65.05 C1.15 47.55, 0.35 31.3, 0 21.68 M0 21.68 C1.78 8.52, 8.6 0.17, 21.68 0 M0 21.68 C0.24 8.37, 5.99 0.08, 21.68 0" stroke="#1e1e1e" stroke-width="1" fill="none"></path></g><g transform="translate(358.03420354765603 520.5660886571831) rotate(0 44.95000076293945 30.179704079752256)"><text x="44.95000076293945" y="0" font-family="Virgil, Segoe UI Emoji" font-size="48.28752652760361px" fill="#1e1e1e" text-anchor="middle" style="white-space: pre;" direction="ltr" dominant-baseline="text-before-edge">API</text></g><g mask="url(#mask-NJfjEJUbWGO7sIQEEQhZD)" stroke-linecap="round"><g transform="translate(272.97530490681856 1408.28070563921) rotate(0 -0.0921047492188336 -278.1415413324814)"><path d="M0.77 -0.95 C0.83 -63.57, 0.17 -283.98, 0.02 -376.73 C-0.13 -469.48, 0.05 -527.24, -0.13 -557.44 M-0.28 1.16 C-0.35 -61.7, -0.8 -285.57, -0.92 -378.45 C-1.03 -471.32, -0.89 -526.33, -0.96 -556.09" stroke="#1e1e1e" stroke-width="1" fill="none"></path></g><g transform="translate(272.97530490681856 1408.28070563921) rotate(0 -0.0921047492188336 -278.1415413324814)"><path d="M-11.13 -29.09 C-5.68 -21.68, -4.03 -15.49, 0.06 -2.38 M-8.82 -29.89 C-6.83 -21.6, -3.16 -14.1, 0.5 -1.82" stroke="#1e1e1e" stroke-width="1" fill="none"></path></g><g transform="translate(272.97530490681856 1408.28070563921) rotate(0 -0.0921047492188336 -278.1415413324814)"><path d="M9.39 -29.13 C9.22 -21.57, 5.23 -15.37, 0.06 -2.38 M11.7 -29.93 C7.88 -21.46, 5.73 -13.94, 0.5 -1.82" stroke="#1e1e1e" stroke-width="1" fill="none"></path></g><g transform="translate(272.97530490681856 1408.28070563921) rotate(0 -0.0921047492188336 -278.1415413324814)"><path d="M7.73 -527.87 C8.03 -535.78, 4.02 -545.05, -1.68 -557.52 M10.04 -528.67 C6.44 -536.18, 4.27 -544.64, -1.23 -556.96" stroke="#1e1e1e" stroke-width="1" fill="none"></path></g><g transform="translate(272.97530490681856 1408.28070563921) rotate(0 -0.0921047492188336 -278.1415413324814)"><path d="M-12.79 -527.86 C-6.87 -535.91, -5.24 -545.17, -1.68 -557.52 M-10.48 -528.66 C-8.27 -536.34, -4.62 -544.81, -1.23 -556.96" stroke="#1e1e1e" stroke-width="1" fill="none"></path></g></g><mask id="mask-NJfjEJUbWGO7sIQEEQhZD"><rect x="0" y="0" fill="#fff" width="372.97530490681856" height="2065.7807056392103"></rect><rect x="233.1336377315256" y="1008.28070563921" fill="#000" width="79.68333435058594" height="45" opacity="1"></rect></mask><g transform="translate(233.1336377315256 1008.2807056392102) rotate(0 39.749562426074135 121.85845866751862)"><text x="39.84166717529297" y="0" font-family="Virgil, Segoe UI Emoji" font-size="36px" fill="#1e1e1e" text-anchor="middle" style="white-space: pre;" direction="ltr" dominant-baseline="text-before-edge">read</text></g><g stroke-linecap="round" transform="translate(336.21759669323455 1105.3883968113373) rotate(0 130.09743135518147 73.72187776793623)"><path d="M32 0 M32 0 C83.09 0, 134.18 0, 228.19 0 M32 0 C88.09 0, 144.18 0, 228.19 0 M228.19 0 C249.53 0, 260.19 10.67, 260.19 32 M228.19 0 C249.53 0, 260.19 10.67, 260.19 32 M260.19 32 C260.19 56.1, 260.19 80.2, 260.19 115.44 M260.19 32 C260.19 49.24, 260.19 66.47, 260.19 115.44 M260.19 115.44 C260.19 136.78, 249.53 147.44, 228.19 147.44 M260.19 115.44 C260.19 136.78, 249.53 147.44, 228.19 147.44 M228.19 147.44 C179.51 147.44, 130.82 147.44, 32 147.44 M228.19 147.44 C162.84 147.44, 97.48 147.44, 32 147.44 M32 147.44 C10.67 147.44, 0 136.78, 0 115.44 M32 147.44 C10.67 147.44, 0 136.78, 0 115.44 M0 115.44 C0 97.02, 0 78.59, 0 32 M0 115.44 C0 95.84, 0 76.23, 0 32 M0 32 C0 10.67, 10.67 0, 32 0 M0 32 C0 10.67, 10.67 0, 32 0" stroke="#1e1e1e" stroke-width="1" fill="none"></path></g><g transform="translate(386.37336239900196 1140.0173272807792) rotate(0 79.94166564941406 39.09294729849421)"><text x="79.94166564941406" y="0" font-family="Virgil, Segoe UI Emoji" font-size="62.54871567759075px" fill="#1e1e1e" text-anchor="middle" style="white-space: pre;" direction="ltr" dominant-baseline="text-before-edge">Redis</text></g><g mask="url(#mask-Yk22AiMXDQySlAY3_yuOB)" stroke-linecap="round"><g transform="translate(496.4020964365882 838.28070563921) rotate(0 -9.200750577478175 125.11501235784962)"><path d="M-0.01 0.06 C-2.82 41.79, -14.62 208.17, -17.41 249.77 M-1.48 -0.96 C-4.4 41.02, -15.76 209.22, -18.39 251.19" stroke="#1e1e1e" stroke-width="1" fill="none"></path></g><g transform="translate(496.4020964365882 838.28070563921) rotate(0 -9.200750577478175 125.11501235784962)"><path d="M8.35 28.8 C5.93 22.56, 3.69 16.11, 0.88 -0.43 M7.48 29.44 C6.75 20.91, 3.77 13.66, 0.29 -0.01" stroke="#1e1e1e" stroke-width="1" fill="none"></path></g><g transform="translate(496.4020964365882 838.28070563921) rotate(0 -9.200750577478175 125.11501235784962)"><path d="M-12.12 27.37 C-9.36 21.49, -6.42 15.41, 0.88 -0.43 M-12.99 28.01 C-7.98 19.99, -5.22 13.14, 0.29 -0.01" stroke="#1e1e1e" stroke-width="1" fill="none"></path></g><g transform="translate(496.4020964365882 838.28070563921) rotate(0 -9.200750577478175 125.11501235784962)"><path d="M-26.69 222.29 C-25.19 230.64, -23.21 238.78, -17.49 250.7 M-27.56 222.93 C-23.24 230.63, -21.56 239.52, -18.09 251.12" stroke="#1e1e1e" stroke-width="1" fill="none"></path></g><g transform="translate(496.4020964365882 838.28070563921) rotate(0 -9.200750577478175 125.11501235784962)"><path d="M-6.21 223.63 C-9.89 231.64, -13.1 239.44, -17.49 250.7 M-7.08 224.27 C-8.51 231.49, -12.56 240.01, -18.09 251.12" stroke="#1e1e1e" stroke-width="1" fill="none"></path></g></g><mask id="mask-Yk22AiMXDQySlAY3_yuOB"><rect x="0" y="0" fill="#fff" width="613.7559371957996" height="1188.28070563921"></rect><rect x="387.2251760569825" y="918.28070563921" fill="#000" width="201" height="90" opacity="1"></rect></mask><g transform="translate(387.2251760569825 918.28070563921) rotate(0 99.97616980212752 45.11501235784962)"><text x="100.5" y="0" font-family="Virgil, Segoe UI Emoji" font-size="36px" fill="#1e1e1e" text-anchor="middle" style="white-space: pre;" direction="ltr" dominant-baseline="text-before-edge">read/write </text><text x="100.5" y="45" font-family="Virgil, Segoe UI Emoji" font-size="36px" fill="#1e1e1e" text-anchor="middle" style="white-space: pre;" direction="ltr" dominant-baseline="text-before-edge">cache</text></g><g stroke-linecap="round" transform="translate(1842.4025686448176 1042.058827871274) rotate(0 130.09743135518147 73.72187776793623)"><path d="M32 0 M32 0 C97.54 0, 163.08 0, 228.19 0 M32 0 C76.33 0, 120.66 0, 228.19 0 M228.19 0 C249.53 0, 260.19 10.67, 260.19 32 M228.19 0 C249.53 0, 260.19 10.67, 260.19 32 M260.19 32 C260.19 63.97, 260.19 95.94, 260.19 115.44 M260.19 32 C260.19 51.84, 260.19 71.69, 260.19 115.44 M260.19 115.44 C260.19 136.78, 249.53 147.44, 228.19 147.44 M260.19 115.44 C260.19 136.78, 249.53 147.44, 228.19 147.44 M228.19 147.44 C167.96 147.44, 107.72 147.44, 32 147.44 M228.19 147.44 C184.78 147.44, 141.37 147.44, 32 147.44 M32 147.44 C10.67 147.44, 0 136.78, 0 115.44 M32 147.44 C10.67 147.44, 0 136.78, 0 115.44 M0 115.44 C0 96.52, 0 77.59, 0 32 M0 115.44 C0 84.08, 0 52.71, 0 32 M0 32 C0 10.67, 10.67 0, 32 0 M0 32 C0 10.67, 10.67 0, 32 0" stroke="#1e1e1e" stroke-width="1" fill="none"></path></g><g transform="translate(1892.558334350585 1076.6877583407158) rotate(0 79.94166564941406 39.09294729849421)"><text x="79.94166564941406" y="0" font-family="Virgil, Segoe UI Emoji" font-size="62.54871567759075px" fill="#1e1e1e" text-anchor="middle" style="white-space: pre;" direction="ltr" dominant-baseline="text-before-edge">Redis</text></g><g mask="url(#mask-UscQYwyHnvKikirD_ivcO)" stroke-linecap="round"><g transform="translate(1885.0206258006892 758.0016238559241) rotate(0 49.79729930146459 141.65021491761814)"><path d="M0.3 0.83 C3.38 23.37, 1.82 89.31, 18.54 136.19 C35.25 183.07, 87.04 257.78, 100.59 282.12 M-1 0.22 C2.02 22.36, 1.34 87.4, 18.15 134.54 C34.95 181.69, 86.26 258.35, 99.85 283.09" stroke="#1e1e1e" stroke-width="1" fill="none"></path></g><g transform="translate(1885.0206258006892 758.0016238559241) rotate(0 49.79729930146459 141.65021491761814)"><path d="M14.26 29.83 C10.36 19.88, 3.91 10.33, -0.69 0.52 M12.61 28.17 C8.42 20.25, 5.26 12.88, 0.81 1.16" stroke="#1e1e1e" stroke-width="1" fill="none"></path></g><g transform="translate(1885.0206258006892 758.0016238559241) rotate(0 49.79729930146459 141.65021491761814)"><path d="M-6.19 31.54 C-3.88 21.02, -4.1 10.95, -0.69 0.52 M-7.84 29.88 C-6.26 21.4, -3.65 13.54, 0.81 1.16" stroke="#1e1e1e" stroke-width="1" fill="none"></path></g><g transform="translate(1885.0206258006892 758.0016238559241) rotate(0 49.79729930146459 141.65021491761814)"><path d="M77.92 265.96 C85.29 269.97, 89.77 274.46, 98.85 282.77 M76.27 264.31 C82.19 269.27, 89.16 274.91, 100.35 283.42" stroke="#1e1e1e" stroke-width="1" fill="none"></path></g><g transform="translate(1885.0206258006892 758.0016238559241) rotate(0 49.79729930146459 141.65021491761814)"><path d="M95.51 255.4 C97.61 262.66, 96.73 270.37, 98.85 282.77 M93.87 253.74 C94.81 261.75, 96.82 270.38, 100.35 283.42" stroke="#1e1e1e" stroke-width="1" fill="none"></path></g></g><mask id="mask-UscQYwyHnvKikirD_ivcO"><rect x="0" y="0" fill="#fff" width="2085.563390547848" height="1140.78070563921"></rect><rect x="1798.5416641235352" y="848.2807056392099" fill="#000" width="207.9166717529297" height="90" opacity="1"></rect></mask><g transform="translate(1798.5416641235352 848.28070563921) rotate(0 136.27626097861867 51.371133134332155)"><text x="103.95833587646484" y="0" font-family="Virgil, Segoe UI Emoji" font-size="36px" fill="#1e1e1e" text-anchor="middle" style="white-space: pre;" direction="ltr" dominant-baseline="text-before-edge">invalidated </text><text x="103.95833587646484" y="45" font-family="Virgil, Segoe UI Emoji" font-size="36px" fill="#1e1e1e" text-anchor="middle" style="white-space: pre;" direction="ltr" dominant-baseline="text-before-edge">tokens</text></g><g transform="translate(845.1250076293945 1388.28070563921) rotate(0 147.6999969482422 21.600000000000023)"><text x="147.6999969482422" y="0" font-family="Cascadia, Segoe UI Emoji" font-size="36px" fill="#1e1e1e" text-anchor="middle" style="white-space: pre;" direction="ltr" dominant-baseline="text-before-edge">data warehouse</text></g><g stroke-linecap="round" transform="translate(60 1780.78070563921) rotate(0 135 76.25)"><path d="M32 0 M32 0 C102.27 3.01, 168.75 3.36, 238 0 M32 0 C101.64 0.85, 170.66 0.78, 238 0 M238 0 C258.99 -1.4, 269.35 9.27, 270 32 M238 0 C259.59 1.21, 270.93 10.51, 270 32 M270 32 C270.97 61.13, 269.37 86.79, 270 120.5 M270 32 C270.58 59.26, 269.66 85.33, 270 120.5 M270 120.5 C270.15 142.5, 259.3 150.86, 238 152.5 M270 120.5 C268.47 143.91, 258.49 154.43, 238 152.5 M238 152.5 C193.23 153.77, 144.66 152.35, 32 152.5 M238 152.5 C161.72 152.83, 84.9 151.36, 32 152.5 M32 152.5 C10.63 151.22, -0.24 143.36, 0 120.5 M32 152.5 C12.66 152.79, -1.09 141.36, 0 120.5 M0 120.5 C-1.28 86.13, -1.89 53.96, 0 32 M0 120.5 C0.3 101.02, 0.38 80.47, 0 32 M0 32 C-1.5 9.66, 8.91 -0.26, 32 0 M0 32 C1.82 12.73, 10.13 -0.84, 32 0" stroke="#1e1e1e" stroke-width="1" fill="none"></path></g><g transform="translate(73.69166564941406 1789.53070563921) rotate(0 121.30833435058594 67.5)"><text x="121.30833435058594" y="0" font-family="Virgil, Segoe UI Emoji" font-size="36px" fill="#1e1e1e" text-anchor="middle" style="white-space: pre;" direction="ltr" dominant-baseline="text-before-edge">django app / </text><text x="121.30833435058594" y="45" font-family="Virgil, Segoe UI Emoji" font-size="36px" fill="#1e1e1e" text-anchor="middle" style="white-space: pre;" direction="ltr" dominant-baseline="text-before-edge">admin </text><text x="121.30833435058594" y="90" font-family="Virgil, Segoe UI Emoji" font-size="36px" fill="#1e1e1e" text-anchor="middle" style="white-space: pre;" direction="ltr" dominant-baseline="text-before-edge">interface</text></g><g mask="url(#mask-PW7ZKqo_u8A3-wh-5xiUO)" stroke-linecap="round"><g transform="translate(347.5 1858.9855679027348) rotate(0 176.17638703940474 -5.3273912946254995)"><path d="M0.58 1.13 C59.43 -0.95, 294.24 -9.76, 352.92 -11.78 M-0.57 0.68 C58.16 -1.35, 293.44 -9.06, 352.2 -10.81" stroke="#1e1e1e" stroke-width="1" fill="none"></path></g><g transform="translate(347.5 1858.9855679027348) rotate(0 176.17638703940474 -5.3273912946254995)"><path d="M30.26 -9.45 C18.61 -6.48, 11.91 -1.91, 1.93 1.42 M27.62 -10.19 C21.84 -6.55, 13.78 -3.64, 0.9 1.25" stroke="#1e1e1e" stroke-width="1" fill="none"></path></g><g transform="translate(347.5 1858.9855679027348) rotate(0 176.17638703940474 -5.3273912946254995)"><path d="M31.01 11.05 C19.03 8.11, 12.11 6.75, 1.93 1.42 M28.38 10.31 C22.31 8.77, 14.05 6.49, 0.9 1.25" stroke="#1e1e1e" stroke-width="1" fill="none"></path></g><g transform="translate(347.5 1858.9855679027348) rotate(0 176.17638703940474 -5.3273912946254995)"><path d="M326.23 1.04 C330.53 -2.74, 339.89 -4.65, 353.55 -10.53 M323.59 0.3 C331.78 -1.66, 337.79 -4.42, 352.52 -10.7" stroke="#1e1e1e" stroke-width="1" fill="none"></path></g><g transform="translate(347.5 1858.9855679027348) rotate(0 176.17638703940474 -5.3273912946254995)"><path d="M325.58 -19.47 C330.18 -17.33, 339.74 -13.32, 353.55 -10.53 M322.94 -20.21 C331.4 -16.98, 337.57 -14.56, 352.52 -10.7" stroke="#1e1e1e" stroke-width="1" fill="none"></path></g></g><mask id="mask-PW7ZKqo_u8A3-wh-5xiUO"><rect x="0" y="0" fill="#fff" width="800" height="1969.6904301662596"></rect><rect x="407.6999969482422" y="1832.0331367709725" fill="#000" width="232.10000610351562" height="43.199999999999996" opacity="1"></rect></mask><g transform="translate(407.6999969482422 1832.0331367709725) rotate(0 115.97639009116256 21.625039837136796)"><text x="116.05000305175781" y="0" font-family="Cascadia, Segoe UI Emoji" font-size="36px" fill="#1e1e1e" text-anchor="middle" style="white-space: pre;" direction="ltr" dominant-baseline="text-before-edge">manage data</text></g></svg>